<?xml version="1.0" encoding="UTF-8"?>
<!DOCTYPE svg PUBLIC "-//W3C//DTD SVG 1.1//EN" "http://www.w3.org/Graphics/SVG/1.1/DTD/svg11.dtd">
<svg xmlns="http://www.w3.org/2000/svg" version="1.1" width="210px" height="210px" style="shape-rendering:geometricPrecision; text-rendering:geometricPrecision; image-rendering:optimizeQuality; fill-rule:evenodd; clip-rule:evenodd" xmlns:xlink="http://www.w3.org/1999/xlink">
<g><path style="opacity:0.976" fill="#36224c" d="M 193.5,84.5 C 196.523,87.5257 199.19,90.8591 201.5,94.5C 201.666,104.839 201.5,115.172 201,125.5C 198.478,130.689 194.644,134.522 189.5,137C 186.772,150.961 180.272,162.794 170,172.5C 169.667,178.5 169.333,184.5 169,190.5C 166.833,196.667 162.667,200.833 156.5,203C 126.5,203.667 96.5,203.667 66.5,203C 65.6634,201.989 65.33,200.822 65.5,199.5C 65.5106,197.983 66.1772,196.816 67.5,196C 95.8333,195.667 124.167,195.333 152.5,195C 160.055,192.034 162.888,186.534 161,178.5C 153.637,183.51 145.471,186.344 136.5,187C 112.167,187.667 87.8333,187.667 63.5,187C 55.7258,185.696 48.5592,182.863 42,178.5C 40.4477,188.952 44.9477,194.786 55.5,196C 56.8228,196.816 57.4894,197.983 57.5,199.5C 57.67,200.822 57.3366,201.989 56.5,203C 45.9224,204.788 38.4224,200.621 34,190.5C 33.6667,184.5 33.3333,178.5 33,172.5C 22.2443,163.06 15.7443,151.226 13.5,137C 8.35574,134.522 4.5224,130.689 2,125.5C 1.33333,114.833 1.33333,104.167 2,93.5C 4.0317,88.6352 7.5317,85.3018 12.5,83.5C 14.2203,74.2857 16.7203,65.2857 20,56.5C 20.9247,52.3986 23.4247,50.3986 27.5,50.5C 28.8148,51.667 29.4814,53.167 29.5,55C 26.7925,61.2887 24.7925,67.7887 23.5,74.5C 22.6909,76.2922 22.1909,78.2922 22,80.5C 21.3333,98.1667 21.3333,115.833 22,133.5C 25.6381,156.804 38.8048,171.637 61.5,178C 74.461,179.106 87.461,179.606 100.5,179.5C 111.5,179.333 122.5,179.167 133.5,179C 160.434,175.399 176.268,160.232 181,133.5C 181.667,116.167 181.667,98.8333 181,81.5C 180.809,79.2922 180.309,77.2922 179.5,75.5C 171.774,41.9404 151.107,21.107 117.5,13C 84.3808,7.59179 57.3808,17.9251 36.5,44C 34.5273,44.4955 32.5273,44.6621 30.5,44.5C 29.0262,42.0731 29.1929,39.7398 31,37.5C 57.9739,6.04218 91.4739,-3.79115 131.5,8C 165.029,21.53 184.362,46.1967 189.5,82C 190.356,83.5947 191.689,84.428 193.5,84.5 Z"/></g>
<g><path style="opacity:0.997" fill="#fae0bd" d="M 179.5,75.5 C 158.962,34.5644 125.962,18.0644 80.5,26C 54.2712,33.7329 35.2712,49.8996 23.5,74.5C 24.7925,67.7887 26.7925,61.2887 29.5,55C 29.4814,53.167 28.8148,51.667 27.5,50.5C 28.5294,48.4832 29.5294,46.4832 30.5,44.5C 32.5273,44.6621 34.5273,44.4955 36.5,44C 57.3808,17.9251 84.3808,7.59179 117.5,13C 151.107,21.107 171.774,41.9404 179.5,75.5 Z"/></g>
<g><path style="opacity:0.993" fill="#888dc8" d="M 201.5,94.5 C 199.19,90.8591 196.523,87.5257 193.5,84.5C 193.333,61.8309 193.5,39.1642 194,16.5C 196.333,15.1667 198.667,15.1667 201,16.5C 201.5,42.4979 201.667,68.4979 201.5,94.5 Z"/></g>
<g><path style="opacity:0.999" fill="#fbf1e0" d="M 179.5,75.5 C 180.309,77.2922 180.809,79.2922 181,81.5C 181.667,98.8333 181.667,116.167 181,133.5C 176.268,160.232 160.434,175.399 133.5,179C 122.5,179.167 111.5,179.333 100.5,179.5C 87.461,179.606 74.461,179.106 61.5,178C 38.8048,171.637 25.6381,156.804 22,133.5C 21.3333,115.833 21.3333,98.1667 22,80.5C 22.1909,78.2922 22.6909,76.2922 23.5,74.5C 35.2712,49.8996 54.2712,33.7329 80.5,26C 125.962,18.0644 158.962,34.5644 179.5,75.5 Z"/></g>
<g><path style="opacity:1" fill="#37244e" d="M 169.5,103.5 C 167.983,103.489 166.816,102.823 166,101.5C 165.667,93.8333 165.333,86.1667 165,78.5C 162.153,71.1481 156.986,66.4814 149.5,64.5C 147.021,63.2051 144.354,62.2051 141.5,61.5C 137.056,59.5564 132.389,58.5564 127.5,58.5C 126.749,57.4265 125.749,57.2599 124.5,58C 121.5,61 118.5,64 115.5,67C 110.511,67.4993 105.511,67.6659 100.5,67.5C 96.1539,67.6657 91.8206,67.499 87.5,67C 84.2059,63.0262 80.3726,59.8595 76,57.5C 65.7792,59.5125 55.9459,62.6792 46.5,67C 43.628,69.5366 41.128,72.3699 39,75.5C 37.3678,96.4357 37.0344,117.436 38,138.5C 39.4749,145.803 43.6416,150.803 50.5,153.5C 56.5202,156.283 62.8535,158.283 69.5,159.5C 74.3638,161.041 79.3638,161.708 84.5,161.5C 87.3915,162.403 90.3915,162.736 93.5,162.5C 115.277,163.711 136.277,160.211 156.5,152C 160.928,148.908 163.761,144.741 165,139.5C 165.333,130.833 165.667,122.167 166,113.5C 166.816,112.177 167.983,111.511 169.5,111.5C 171.017,111.511 172.184,112.177 173,113.5C 173.667,122.167 173.667,130.833 173,139.5C 170.833,149.666 164.999,156.832 155.5,161C 119.169,173.626 82.8353,173.626 46.5,161C 37.6461,156.471 32.1461,149.304 30,139.5C 29.3333,118.833 29.3333,98.1667 30,77.5C 32.3474,68.2897 37.8474,61.7897 46.5,58C 57.7999,53.4086 69.4666,50.742 81.5,50C 84.5,53 87.5,56 90.5,59C 97.8333,59.6667 105.167,59.6667 112.5,59C 115.841,54.806 119.841,51.6393 124.5,49.5C 136.895,51.6876 148.895,55.1876 160.5,60C 166.571,64.4148 170.738,70.2481 173,77.5C 173.667,85.5 173.667,93.5 173,101.5C 172.184,102.823 171.017,103.489 169.5,103.5 Z"/></g>
<g><path style="opacity:1" fill="#2ddfc6" d="M 100.5,67.5 C 84.3349,96.5023 67.6682,125.169 50.5,153.5C 43.6416,150.803 39.4749,145.803 38,138.5C 37.0344,117.436 37.3678,96.4357 39,75.5C 41.128,72.3699 43.628,69.5366 46.5,67C 55.9459,62.6792 65.7792,59.5125 76,57.5C 80.3726,59.8595 84.2059,63.0262 87.5,67C 91.8206,67.499 96.1539,67.6657 100.5,67.5 Z"/></g>
<g><path style="opacity:1" fill="#91e5d8" d="M 127.5,58.5 C 107.412,91.6694 88.0784,125.336 69.5,159.5C 62.8535,158.283 56.5202,156.283 50.5,153.5C 67.6682,125.169 84.3349,96.5023 100.5,67.5C 105.511,67.6659 110.511,67.4993 115.5,67C 118.5,64 121.5,61 124.5,58C 125.749,57.2599 126.749,57.4265 127.5,58.5 Z"/></g>
<g><path style="opacity:1" fill="#30dfc7" d="M 127.5,58.5 C 132.389,58.5564 137.056,59.5564 141.5,61.5C 123.018,95.1313 104.018,128.465 84.5,161.5C 79.3638,161.708 74.3638,161.041 69.5,159.5C 88.0784,125.336 107.412,91.6694 127.5,58.5 Z"/></g>
<g><path style="opacity:1" fill="#90e5d8" d="M 141.5,61.5 C 144.354,62.2051 147.021,63.2051 149.5,64.5C 130.833,97.1667 112.167,129.833 93.5,162.5C 90.3915,162.736 87.3915,162.403 84.5,161.5C 104.018,128.465 123.018,95.1313 141.5,61.5 Z"/></g>
<g><path style="opacity:1" fill="#2ddfc6" d="M 149.5,64.5 C 156.986,66.4814 162.153,71.1481 165,78.5C 165.333,86.1667 165.667,93.8333 166,101.5C 166.816,102.823 167.983,103.489 169.5,103.5C 169.5,106.167 169.5,108.833 169.5,111.5C 167.983,111.511 166.816,112.177 166,113.5C 165.667,122.167 165.333,130.833 165,139.5C 163.761,144.741 160.928,148.908 156.5,152C 136.277,160.211 115.277,163.711 93.5,162.5C 112.167,129.833 130.833,97.1667 149.5,64.5 Z"/></g>
<g><path style="opacity:1" fill="#8589c3" d="M 12.5,92.5 C 13.6593,103.659 13.8259,114.992 13,126.5C 11.6152,125.449 10.6152,124.116 10,122.5C 9.33333,113.833 9.33333,105.167 10,96.5C 10.6622,95.0161 11.4955,93.6828 12.5,92.5 Z"/></g>
<g><path style="opacity:1" fill="#8589c3" d="M 189.5,92.5 C 191.173,93.343 192.34,94.6763 193,96.5C 193.667,104.833 193.667,113.167 193,121.5C 192.74,123.618 191.74,125.284 190,126.5C 189.5,115.172 189.333,103.838 189.5,92.5 Z"/></g>
<g><path style="opacity:1" fill="#6061a8" d="M 65.5,199.5 C 62.8333,199.5 60.1667,199.5 57.5,199.5C 57.4894,197.983 56.8228,196.816 55.5,196C 44.9477,194.786 40.4477,188.952 42,178.5C 48.5592,182.863 55.7258,185.696 63.5,187C 87.8333,187.667 112.167,187.667 136.5,187C 145.471,186.344 153.637,183.51 161,178.5C 162.888,186.534 160.055,192.034 152.5,195C 124.167,195.333 95.8333,195.667 67.5,196C 66.1772,196.816 65.5106,197.983 65.5,199.5 Z"/></g>
</svg>
